# xmcd CD database file
#
# Track frame offsets:
#	150
#	12097
#	24290
#	34050
#	51295
#	61292
#	73635
#	90260
#	103815
#	114475
#	130510
#	142995
#	155567
#	169795
#	184972
#	205790
#	220547
#	232852
#	248395
#	259380
#	268622
#	284130
#	301147
#	313590
#	327020
#	339597
#
# Disc length: 4730 seconds
#
# Revision: 2
# Processed by: cddbd v1.4PL0 Copyright (c) Steve Scherf et al.
# Submitted via: CDex 1.51
#
DISCID=6412781a
DTITLE=Sonny Terry and Brownie McGhee - California Blues
DYEAR=1957
DGENRE=Blues
TTITLE0=I Got Fooled
TTITLE1=No Need of Running
TTITLE2=I Feel So Good
TTITLE3=Thinkin' and Worrying
TTITLE4=I Love You Baby
TTITLE5=California Blues
TTITLE6=Walkin' and Lyin' Down
TTITLE7=First and Last Love
TTITLE8=Christine
TTITLE9=I Have Had My Fun
TTITLE10=Whoppin' and Squallin'
TTITLE11=Water Boy Cry
TTITLE12=Motherless Child
TTITLE13=Sportin' Life
TTITLE14=John Henry
TTITLE15=I'm a Stranger
TTITLE16=Cornbread and Peas
TTITLE17=Louise
TTITLE18=I Done Done
TTITLE19=Meet You In the Morning
TTITLE20=Poor Boy From Home
TTITLE21=Hudy Leadbelly
TTITLE22=Something's Wrong at Home
TTITLE23=Take This Hammer
TTITLE24=Baby's Gone
TTITLE25=Lose Your Money
EXTD=YEAR: 1957
EXTT0=
EXTT1=
EXTT2=
EXTT3=
EXTT4=
EXTT5=
EXTT6=
EXTT7=
EXTT8=
EXTT9=
EXTT10=
EXTT11=
EXTT12=
EXTT13=
EXTT14=
EXTT15=
EXTT16=
EXTT17=
EXTT18=
EXTT19=
EXTT20=
EXTT21=
EXTT22=
EXTT23=
EXTT24=
EXTT25=
PLAYORDER=
